<?xml version="1.0" encoding="utf-8"?>
<!-- Generator: Adobe Illustrator 23.0.3, SVG Export Plug-In . SVG Version: 6.00 Build 0)  -->
<svg version="1.1" id="Layer_1" xmlns="http://www.w3.org/2000/svg" xmlns:xlink="http://www.w3.org/1999/xlink" x="0px" y="0px"
	 viewBox="0 0 200 167.49" style="enable-background:new 0 0 200 167.49;" xml:space="preserve">
<style type="text/css">
	.st0{fill:#FDFDFD;}
</style>
<g>
	<path class="st0" d="M200,67.27c-0.24,27.64-9.83,51.41-29.38,71.1c-14.87,14.97-32.67,24.28-53.49,27.63
		c-31.47,5.06-59.4-2.65-83.5-23.68C16.69,127.54,6.04,109.08,1.91,86.98c-5.3-28.34,0.45-54.3,17.11-77.84
		c0.96-1.35,1.9-2.72,3.04-3.92c1.43-1.52,3.62-1.78,5.06-0.62c1.38,1.11,1.65,3.28,0.41,4.96c-3.32,4.53-6.54,9.13-9.22,14.08
		C11.45,36.24,7.74,49.7,7.26,64.06c-0.51,15,1.78,29.54,8.53,42.98c14.03,27.91,36.01,45.85,67.09,51.74
		c15.45,2.93,30.77,2.23,45.8-2.64c12.53-4.06,23.57-10.72,33.41-19.42c17.02-15.06,26.83-33.97,29.9-56.43
		c3.68-26.92-3.58-50.74-20.47-71.81c-0.68-0.85-1.41-1.67-2.04-2.55c-1.39-1.93-1.25-3.84,0.32-5.12c1.55-1.27,3.52-1.05,5.1,0.72
		c3.81,4.27,7.19,8.85,10.22,13.71c9.06,14.53,13.89,30.39,14.81,47.46c0.02,0.43,0.08,0.87,0.08,1.3
		C200.01,65.09,200,66.18,200,67.27z"/>
	<path class="st0" d="M176.59,51.01c-3-15.54-10.58-28.82-21.92-39.91c-1.05-1.03-1.5-0.97-2.31,0.32
		c-0.98,1.56-2.13,2.97-3.43,4.26c-2.8,2.77-6.07,4.95-9.16,7.37c-3.33,2.61-4.96,5.95-4.95,10.16c0.01,2.86-0.11,5.72-0.11,8.57
		c0,0.89-0.71,1.62-1.61,1.62c-2.79-0.01-5.57-0.03-8.36-0.02c-1.11,0-1.7-0.44-1.69-1.63c0.04-3.97,0.02-7.93,0.05-11.9
		c0.04-4.62,1.58-8.52,5.51-11.25c0.65-0.45,1.15-1.08,1.42-1.88c0.53-1.59-0.55-3.32-2.2-3.57c-1.28-0.19-2.27,0.35-3.18,1.08
		c-4.65,3.74-7.07,8.62-7.34,14.57c-0.19,4.27-0.15,8.53-0.06,12.8c0.03,1.39-0.39,1.79-1.64,1.79c-3.27,0-6.53,0-9.8,0
		c0-0.02,0-0.05,0-0.07c-1.61,0-3.23-0.01-4.84,0c-1.65,0.01-3.31,0.06-4.96,0.08c-1.08,0.02-1.97-0.86-1.97-1.94
		c-0.01-2.91,0.02-5.83-0.01-8.74c-0.02-2.02-1.07-3.19-2.81-3.25c-1.78-0.05-2.87,1.04-2.93,3.09c-0.07,2.35-0.05,4.71-0.05,7.06
		c-0.01,3.61-0.26,3.87-3.85,3.78c-1.1-0.03-1.98-0.93-1.98-2.02c-0.01-4.18,0-8.35,0-12.53c0-5.9-2.01-11.07-5.65-15.65
		c-0.66-0.83-1.41-1.61-2.59-1.85c-1.45-0.3-2.88,0.71-3.13,2.17c-0.25,1.46,0.45,2.44,1.21,3.4c2.26,2.86,3.84,6.05,4.13,9.71
		c0.41,5.22,0.13,10.45,0.18,15.68c0.01,0.93-0.65,1.01-1.35,1.01c-2.92,0-5.84-0.02-8.76,0.01c-1.07,0.01-1.46-0.45-1.45-1.5
		c0.05-3.22,0.01-6.45,0.06-9.67c0.05-3.81-1.05-7.2-3.48-10.15c-1.91-2.31-4.26-4.11-6.74-5.73c-2.54-1.66-4.81-3.59-6.64-6.03
		c-1.04-1.38-1.41-1.4-2.67-0.16c-6.66,6.55-12.36,13.82-16.62,22.17c-7.1,13.95-9.16,28.72-7.35,44.16
		c2.18,18.62,10.05,34.42,23.6,47.17c16.61,15.63,39.3,23.37,62.01,21.33c18.67-1.67,34.78-9.16,47.77-22.29
		C174.68,102.69,181.9,78.56,176.59,51.01z M92.75,111.89c-3.81,4.52-10.35,7.35-16.32,7.26c-6.2-0.22-11.89-1.73-16.26-6.48
		c-4.3-4.67-5.9-10.04-4.05-16.26c0.39-1.31,0.93-2.45,2.44-2.76c1.56-0.33,2.54,0.5,3.4,1.65c2.55,3.4,5.93,5.27,10.21,5.47
		c1.56,0.07,2.69-0.57,3.49-1.86c0.37-0.59,0.67-1.22,1-1.83c2.02-3.76,6.47-5.84,11.24-5.24c4.16,0.52,7.66,3.29,8.47,7.08
		C97.42,103.81,95.91,108.15,92.75,111.89z M70.6,81.36c-0.14-6.15,5.31-11.46,11.78-11.46c5.63,0,10.9,4.76,11.46,10.35
		c0.27,2.7-0.72,4.11-2.89,4.12c-1.55,0.01-2.44-0.75-2.82-2.35c-0.21-0.89-0.37-1.79-0.69-2.64c-0.99-2.65-3.02-3.81-5.99-3.49
		c-2.49,0.27-4.4,2.07-4.84,4.59c-0.08,0.47-0.14,0.95-0.23,1.42c-0.34,1.74-1.5,2.69-3.08,2.52C71.52,84.23,70.64,83.23,70.6,81.36
		z M68.91,61.39c-0.56,0-1.13-0.02-1.69-0.11c-1.55-0.27-2.28-0.95-2.35-2.5c-0.12-2.43-0.13-4.87-0.13-7.31
		c0-1.16,0.74-1.55,1.82-1.55c4.7,0.01,9.41,0.01,14.11,0.01c6.31,0,12.63,0,18.94,0c10.89,0,21.78,0,32.67,0
		c1.36,0,2.41,1.11,2.32,2.47c-0.13,2.08,0.22,4.15-0.09,6.22c-0.27,1.84-0.93,2.49-2.76,2.73c-0.43,0.06-0.87,0.04-1.3,0.04
		C109.94,61.4,89.43,61.4,68.91,61.39z M128.69,80.93c0,1.88-0.53,2.89-1.75,3.3c-1.97,0.66-3.46-0.16-3.94-2.19
		c-0.12-0.51-0.15-1.03-0.26-1.54c-0.65-3.02-2.79-4.75-5.84-4.72c-2.71,0.03-4.93,2-5.49,4.86c-0.1,0.51-0.16,1.03-0.3,1.53
		c-0.46,1.63-1.58,2.45-3.04,2.26c-1.59-0.21-2.47-1.22-2.56-2.94c-0.27-4.87,3.61-9.87,8.68-11.21
		C121.24,68.41,128.68,73.88,128.69,80.93z M138.26,113.56c-4.34,3.85-9.49,5.53-16.41,5.56c-6.89-0.19-13.31-3.37-17.42-10.53
		c-1.37-2.38-2.05-5.04-1.81-7.78c0.48-5.29,4.68-9.06,10.01-9.12c4.66-0.05,8.28,1.73,10.41,6.06c1.36,2.77,2.64,3.43,5.66,2.89
		c3.39-0.6,6.21-2.18,8.35-4.93c0.95-1.21,1.93-2.49,3.74-2.11c1.86,0.39,2.35,1.99,2.67,3.52
		C144.78,103.56,143.25,109.13,138.26,113.56z"/>
</g>
</svg>
